<svg width="225" height="32" viewBox="0 0 225 32" fill="none" xmlns="http://www.w3.org/2000/svg">
<g id="Group">
<path id="Vector" d="M113.172 0.205872C104.709 0.205872 97.791 7.24449 97.791 15.9312C97.791 24.5836 104.675 31.6565 113.172 31.6565C121.668 31.6565 128.552 24.6179 128.552 15.9312C128.552 7.24449 121.668 0.205872 113.172 0.205872ZM113.172 25.6479C107.933 25.6479 103.634 21.2874 103.634 15.8969C103.634 10.5063 107.899 6.14578 113.172 6.14578C118.41 6.14578 122.709 10.5063 122.709 15.8969C122.709 21.2874 118.444 25.6479 113.172 25.6479Z" fill="#232824" class="svg-elem-1"></path>
<path id="Vector_2" d="M24.8843 0.0343323C24.8843 0.0686671 24.8843 0.102998 24.8843 0.137332C24.8843 5.49356 20.6194 9.88842 15.347 9.88842C10.0746 9.88842 5.8097 5.52789 5.8097 0.137332C5.8097 0.102998 5.8097 0.0686671 5.8097 0.0343323H0C0 0.0686671 0 0.102998 0 0.137332C0 8.7897 6.88433 15.8627 15.3806 15.8627C23.8769 15.8627 30.7612 8.82403 30.7612 0.137332C30.7612 0.102998 30.7612 0.0686671 30.7612 0.0343323H24.8843Z" fill="#232824" class="svg-elem-2"></path>
<path id="Vector_3" d="M77.2725 15.7596C77.2725 24.412 84.1568 31.4849 92.6531 31.4849C92.6866 31.4849 92.7202 31.4849 92.7538 31.4849V25.5107C92.7202 25.5107 92.6866 25.5107 92.6531 25.5107C87.4142 25.5107 83.1157 21.1502 83.1157 15.7596C83.1157 10.4034 87.3807 6.00855 92.6531 6.00855C92.6866 6.00855 92.7202 6.00855 92.7538 6.00855V0.0343018C92.7202 0.0343018 92.6866 0.0343018 92.6531 0.0343018C84.1568 0.0343018 77.2725 7.07293 77.2725 15.7596Z" fill="#232824" class="svg-elem-3"></path>
<path id="Vector_4" d="M60.6828 16.7554C60.4477 21.8026 56.4515 25.8541 51.4813 26.0258H50.8097C45.8395 25.8541 41.8432 21.8026 41.6082 16.7554V0.0343369H35.7649V0.0686737V16.206V16.2747C35.7649 16.412 35.7649 16.5837 35.7649 16.721V17.7167H35.8321C36.235 22.0429 38.3171 25.8541 41.4403 28.4635C43.9589 30.5923 47.1828 31.897 50.6753 32H50.7761C50.8768 32 51.0112 32 51.1119 32C51.3134 32 51.5149 32 51.7164 32C55.1753 31.8627 58.2985 30.5579 60.8171 28.4635C63.9403 25.8541 66.0223 22.0429 66.4253 17.7167C66.4589 17.3734 66.4589 17.0644 66.4925 16.721V0H60.6492V16.7554H60.6828Z" fill="#232824" class="svg-elem-4"></path>
<path id="Vector_5" d="M18.2015 25.4764H12.5261V31.4506H18.2015V25.4764Z" fill="#232824" class="svg-elem-5"></path>
<path id="Vector_6" d="M225 15.7596C225 7.10726 218.116 0.0343018 209.619 0.0343018C201.157 0.0343018 194.239 7.07293 194.239 15.7596C194.239 15.794 194.239 15.8283 194.239 15.8626H200.082C200.082 15.8283 200.082 15.794 200.082 15.7596C200.082 10.4034 204.347 6.00855 209.619 6.00855C214.858 6.00855 219.157 10.3691 219.157 15.7596C219.157 15.794 219.157 15.8283 219.157 15.8626H207.067V21.6652H219.358V31.4506H225V15.8283C225 15.794 225 15.794 225 15.7596Z" fill="#232824" class="svg-elem-6"></path>
<path id="Vector_7" d="M199.948 25.4764H194.272V31.4506H199.948V25.4764Z" fill="#232824" class="svg-elem-7"></path>
<path id="Vector_8" d="M188.328 10.3691C186.179 4.36049 180.504 0.0686386 173.888 0.0686386C168.75 0.0686386 164.216 2.64375 161.429 6.59225C158.642 2.60941 154.075 0.0343018 148.936 0.0343018C140.474 0.0343018 133.556 7.07293 133.556 15.7596C133.556 15.794 133.556 15.8283 133.556 15.8626H139.399C139.399 15.8283 139.399 15.794 139.399 15.7596C139.399 10.4034 143.664 6.00855 148.936 6.00855C154.175 6.00855 158.474 10.3691 158.474 15.7596C158.474 15.794 158.474 15.8283 158.474 15.8626H158.507V31.4506H164.351V15.8626H164.384C164.384 15.8283 164.384 15.794 164.384 15.7596C164.384 10.4034 168.649 6.00855 173.922 6.00855C179.026 6.00855 183.19 10.1287 183.425 15.2789V31.3819H189.269V15.794C189.269 15.7596 189.269 15.7253 189.269 15.691C189.269 15.588 189.269 15.485 189.269 15.3476C189.201 13.6652 188.899 11.9485 188.328 10.3691Z" fill="#232824" class="svg-elem-8"></path>
<path id="Vector_9" d="M139.231 25.4764H133.556V31.4506H139.231V25.4764Z" fill="#232824" class="svg-elem-9"></path>
<path id="Vector_10" d="M77.2052 0.0343018H71.5298V31.4506H77.2052V0.0343018Z" fill="#232824" class="svg-elem-10"></path>
<path id="Vector_11" d="M225 15.7596C225 7.10726 218.116 0.0343018 209.619 0.0343018C201.157 0.0343018 194.239 7.07293 194.239 15.7596C194.239 15.794 194.239 15.8283 194.239 15.8626H200.082C200.082 15.8283 200.082 15.794 200.082 15.7596C200.082 10.4034 204.347 6.00855 209.619 6.00855C214.858 6.00855 219.157 10.3691 219.157 15.7596C219.157 15.794 219.157 15.8283 219.157 15.8626H207.067V21.6652H219.358V31.4506H225V15.8283C225 15.794 225 15.794 225 15.7596Z" fill="#232824" class="svg-elem-11"></path>
</g>
</svg>