<svg width="24" height="24" viewBox="0 0 24 24" fill="none" xmlns="http://www.w3.org/2000/svg">
<path d="M6.75 18V20.25" stroke="#232824" stroke-width="1.5" stroke-linecap="round" stroke-linejoin="round"/>
<path d="M17.25 18V20.25" stroke="#232824" stroke-width="1.5" stroke-linecap="round" stroke-linejoin="round"/>
<path d="M18.75 9H12.75V13.5H18.75V9Z" stroke="#232824" stroke-width="1.5" stroke-linecap="round" stroke-linejoin="round"/>
<path d="M18.75 9.75H21.75C21.9489 9.75 22.1397 9.82902 22.2803 9.96967C22.421 10.1103 22.5 10.3011 22.5 10.5V13.5C22.5 14.6935 22.0259 15.8381 21.182 16.682C20.3381 17.5259 19.1935 18 18 18H6C4.80653 18 3.66193 17.5259 2.81802 16.682C1.97411 15.8381 1.5 14.6935 1.5 13.5V10.5C1.5 10.3011 1.57902 10.1103 1.71967 9.96967C1.86032 9.82902 2.05109 9.75 2.25 9.75H12.75" stroke="#232824" stroke-width="1.5" stroke-linecap="round" stroke-linejoin="round"/>
<path d="M5.25 9.75001V4.87501C5.25 4.37772 5.44754 3.90081 5.79917 3.54918C6.15081 3.19755 6.62772 3.00001 7.125 3.00001C7.56167 2.99898 7.98559 3.14712 8.32658 3.41991C8.66756 3.6927 8.90515 4.07376 9 4.50001" stroke="#232824" stroke-width="1.5" stroke-linecap="round" stroke-linejoin="round"/>
</svg>
